# File created by Blade
# Date/Time:  Tue Sep 30 19:35:54 2014
#---------------------------------------------------------
:version 1.10
:name HOM
:units
  mass 1.0
  length 1.000000
  angle deg
:documentation
     Acclaim Skeleton File
:root
   axis xyz
   order TX TY TZ RX RY RZ
   position 0.000000 0.000000 0.000000
   orientation 0 0 0
:bonedata
   begin
      id 1
      name Spine_dum
      direction 0.000000 1.000000 0.000000
      length 3.241213
      axis 0.0 0.0 0.0 xyz
   end
   begin
      id 2
      name LeftUpLeg_dum
      direction 1.000000 0.000000 0.000000
      length 3.434019
      axis 0.0 0.0 0.0 xyz
   end
   begin
      id 3
      name RightUpLeg_dum
      direction -1.000000 0.000000 0.000000
      length 3.434019
      axis 0.0 0.0 0.0 xyz
   end
   begin
      id 4
      name Spine
      direction 0.000000 1.000000 0.000000
      length 0.000000
      axis 0.0 0.0 0.0 xyz
      dof rx ry rz
   end
   begin
      id 5
      name Spine_dum1
      direction 0.000000 1.000000 0.000000
      length 18.382958
      axis 0.0 0.0 0.0 xyz
   end
   begin
      id 6
      name Spine_dum2
      direction 0.000000 1.000000 0.000000
      length 12.828261
      axis 0.0 0.0 0.0 xyz
   end
   begin
      id 7
      name Spine_dum3
      direction 0.000000 1.000000 0.000000
      length 12.828261
      axis 0.0 0.0 0.0 xyz
   end
   begin
      id 8
      name Head
      direction 0.000000 1.000000 0.000000
      length 4.527550
      axis 0.0 0.0 0.0 xyz
      dof rx ry rz
   end
   begin
      id 9
      name LeftShoulder
      direction 1.000000 0.000000 0.000000
      length 7.748055
      axis 0.0 0.0 -90.0 xyz
      dof rx ry rz
   end
   begin
      id 10
      name LeftArm
      direction 1.000000 0.000000 0.000000
      length 10.635614
      axis 0.0 0.0 -90.0 xyz
      dof rx ry rz
   end
   begin
      id 11
      name LeftForeArm
      direction 1.000000 0.000000 0.000000
      length 8.346755
      axis 0.0 0.0 -90.0 xyz
      dof ry rz rx
   end
   begin
      id 12
      name LeftHand
      direction 0.000000 0.000000 0.000000
      length 0.000000
      axis 0.0 0.0 -90.0 xyz
      dof rx ry rz
   end
   begin
      id 13
      name LeftHand_dum1
      direction 0.000000 0.000000 0.000000
      length 0.000000
      axis 0.0 0.0 -90.0 xyz
   end
   begin
      id 14
      name LeftHand_dum2
      direction 1.000000 0.000000 0.000000
      length 3.937000
      axis 0.0 0.0 -90.0 xyz
   end
   begin
      id 15
      name LeftHandThumb1
      direction 0.000000 0.000000 1.000000
      length 3.937000
      axis 0.0 0.0 -90.0 xyz
      dof rx rz ry
   end
   begin
      id 16
      name RightShoulder
      direction -1.000000 0.000000 0.000000
      length 7.748055
      axis 0.0 0.0 90.0 xyz
      dof rx ry rz
   end
   begin
      id 17
      name RightArm
      direction -1.000000 0.000000 0.000000
      length 10.635614
      axis 0.0 0.0 90.0 xyz
      dof rx ry rz
   end
   begin
      id 18
      name RightForeArm
      direction -1.000000 0.000000 0.000000
      length 8.346755
      axis 0.0 0.0 90.0 xyz
      dof ry rz rx
   end
   begin
      id 19
      name RightHand
      direction 0.000000 0.000000 0.000000
      length 0.000000
      axis 0.0 0.0 90.0 xyz
      dof rx ry rz
   end
   begin
      id 20
      name RightHand_dum1
      direction 0.000000 0.000000 0.000000
      length 0.000000
      axis 0.0 0.0 90.0 xyz
   end
   begin
      id 21
      name RightHand_dum2
      direction -1.000000 0.000000 0.000000
      length 3.937000
      axis 0.0 0.0 90.0 xyz
   end
   begin
      id 22
      name RightHandThumb1
      direction 0.000000 0.000000 1.000000
      length 3.937000
      axis 0.0 0.0 90.0 xyz
      dof rx rz ry
   end
   begin
      id 23
      name LeftUpLeg
      direction 0.000000 -1.000000 0.000000
      length 15.713025
      axis 0.0 0.0 0.0 xyz
      dof rx ry rz
   end
   begin
      id 24
      name LeftLeg
      direction 0.000000 -1.000000 0.000000
      length 14.435119
      axis 0.0 0.0 0.0 xyz
      dof rx ry rz
   end
   begin
      id 25
      name LeftFoot
      direction 0.000000 -0.258819 0.965926
      length 4.938895
      axis 15.0 0.0 0.0 xyz
      dof rx ry rz
   end
   begin
      id 26
      name LeftToeBase
      direction 0.000000 0.000000 1.000000
      length 2.952750
      axis 0.0 0.0 0.0 xyz
      dof rx ry rz
   end
   begin
      id 27
      name RightUpLeg
      direction 0.000000 -1.000000 0.000000
      length 15.713025
      axis 0.0 0.0 0.0 xyz
      dof rx ry rz
   end
   begin
      id 28
      name RightLeg
      direction 0.000000 -1.000000 0.000000
      length 14.435119
      axis 0.0 0.0 0.0 xyz
      dof rx ry rz
   end
   begin
      id 29
      name RightFoot
      direction 0.000000 -0.258819 0.965926
      length 4.938895
      axis 15.0 0.0 0.0 xyz
      dof rx ry rz
   end
   begin
      id 30
      name RightToeBase
      direction 0.000000 0.000000 1.000000
      length 2.952750
      axis 0.0 0.0 0.0 xyz
      dof rx ry rz
   end
:hierarchy
   begin
      root Spine_dum LeftUpLeg_dum RightUpLeg_dum
      Spine_dum Spine
      LeftUpLeg_dum LeftUpLeg
      RightUpLeg_dum RightUpLeg
      Spine Spine_dum1 Spine_dum2 Spine_dum3
      Spine_dum1 Head
      Spine_dum2 LeftShoulder
      Spine_dum3 RightShoulder
      LeftShoulder LeftArm
      LeftArm LeftForeArm
      LeftForeArm LeftHand
      LeftHand LeftHand_dum1 LeftHand_dum2
      LeftHand_dum1 LeftHandThumb1
      RightShoulder RightArm
      RightArm RightForeArm
      RightForeArm RightHand
      RightHand RightHand_dum1 RightHand_dum2
      RightHand_dum1 RightHandThumb1
      LeftUpLeg LeftLeg
      LeftLeg LeftFoot
      LeftFoot LeftToeBase
      RightUpLeg RightLeg
      RightLeg RightFoot
      RightFoot RightToeBase
   end

# File created by Blade
# Date/Time:  Tue Sep 23 19:15:59 2014
# Frame Rate: 120.000 fps
#------------------------------------------------------
:FULLY-SPECIFIED
:DEGREES
463
root 4.666142 33.043603 -4.059731 35.894953 -16.105173 -25.253469
Spine -31.594914 -12.026316 27.148381
Head 2.581301 -9.551519 -4.500325
LeftShoulder 5.660248 36.374271 28.931658
LeftArm 82.415093 21.121454 -49.980762
LeftForeArm 9.827358 -0.000000 67.788047
LeftHand 46.076905 -0.000000 8.013292
LeftHandThumb1 -26.253704 0.000000 33.147579
RightShoulder 1.558508 -44.936407 -14.819165
RightArm 68.259016 -8.701243 53.043000
RightForeArm 52.966086 -0.000000 62.232410
RightHand 8.629889 -0.000000 21.548804
RightHandThumb1 -24.326973 -0.000000 -32.862282
LeftUpLeg -38.060681 15.311072 12.332366
LeftLeg 25.103844 -0.000000 -0.000000
LeftFoot -15.244216 15.575561 5.088239
LeftToeBase -1.386802 -0.000000 0.000000
RightUpLeg -165.006928 -5.017449 19.586202
RightLeg 135.291101 -0.000000 -0.000000
RightFoot 43.290169 -6.451323 5.353289
RightToeBase 50.006292 -0.000000 -0.000000
464
root 4.671346 33.050448 -4.027341 35.861644 -16.064464 -25.291637
Spine -31.583377 -11.950426 27.170023
Head 2.608326 -9.605885 -4.548695
LeftShoulder 5.636922 36.434427 28.932530
LeftArm 82.529943 21.173999 -49.981179
LeftForeArm 9.672452 0.000000 67.656339
LeftHand 46.371100 -0.000000 7.431259
LeftHandThumb1 -26.253704 0.000000 33.147579
RightShoulder 1.320123 -45.143134 -14.663396
RightArm 68.223674 -8.790008 53.142517
RightForeArm 53.259979 -0.000000 62.390666
RightHand 8.611949 -0.000000 21.432557
RightHandThumb1 -24.326973 -0.000000 -32.862282
LeftUpLeg -38.059134 15.441818 12.285915
LeftLeg 25.188315 -0.000000 -0.000000
LeftFoot -15.167681 15.476441 5.059433
LeftToeBase -1.633703 -0.000000 0.000000
RightUpLeg -164.993358 -4.994827 19.665800
RightLeg 135.736458 -0.000000 -0.000000
RightFoot 43.514045 -6.177407 5.569240
RightToeBase 49.926228 -0.000000 -0.000000
465
root 4.677287 33.059774 -3.988564 35.810892 -15.957110 -25.387678
Spine -31.551743 -11.878501 27.300818
Head 2.626495 -9.709127 -4.669274
LeftShoulder 5.561395 36.519662 28.851889
LeftArm 82.719999 21.205430 -49.873018
LeftForeArm 9.330301 0.000000 67.510772
LeftHand 46.370235 -0.000000 7.205108
LeftHandThumb1 -26.253704 0.000000 33.147579
RightShoulder 0.996741 -45.378180 -14.520188
RightArm 68.249363 -8.914358 53.209827
RightForeArm 53.602255 -0.000000 62.501590
RightHand 8.579346 0.000000 21.397146
RightHandThumb1 -24.326973 -0.000000 -32.862282
LeftUpLeg -37.978741 15.435481 12.378103
LeftLeg 25.219583 -0.000000 -0.000000
LeftFoot -15.062572 15.533498 5.124694
LeftToeBase -1.888824 -0.000000 0.000000
RightUpLeg -164.910699 -4.973407 19.848501
RightLeg 136.232150 -0.000000 -0.000000
RightFoot 43.737913 -5.900930 5.639764
RightToeBase 49.850050 -0.000000 -0.000000
466
root 4.684248 33.070489 -3.955966 35.774711 -15.905468 -25.486395
Spine -31.486779 -11.777337 27.384024
Head 2.599626 -9.804304 -4.731195
LeftShoulder 5.571199 36.449983 28.877014
LeftArm 82.707933 21.318422 -49.942888
LeftForeArm 9.236786 -0.000000 67.409486
LeftHand 46.499717 -0.000000 6.697992
LeftHandThumb1 -26.253704 0.000000 33.147579
RightShoulder 0.638315 -45.527126 -14.343089
RightArm 68.274575 -9.082834 53.262610
RightForeArm 53.916156 -0.000000 62.517108
RightHand 8.412749 -0.000000 21.421303
RightHandThumb1 -24.326973 -0.000000 -32.862282
LeftUpLeg -37.862775 15.439247 12.441347
LeftLeg 25.164660 -0.000000 -0.000000
LeftFoot -14.934184 15.681733 5.177852
LeftToeBase -2.141910 -0.000000 0.000000
RightUpLeg -164.817257 -4.924546 19.999259
RightLeg 136.697249 -0.000000 -0.000000
RightFoot 44.047456 -5.721854 5.875192
RightToeBase 49.710107 -0.000000 -0.000000
